<?xml version="1.0" standalone="no"?>
<!DOCTYPE svg PUBLIC "-//W3C//DTD SVG 20010904//EN"
 "http://www.w3.org/TR/2001/REC-SVG-20010904/DTD/svg10.dtd">
<svg version="1.0" xmlns="http://www.w3.org/2000/svg"
 width="1280.000000pt" height="1280.000000pt" viewBox="0 0 1280.000000 1280.000000"
 preserveAspectRatio="xMidYMid meet">

<g transform="translate(0.000000,1280.000000) scale(0.100000,-0.100000)"
fill="#000000" stroke="none">
<path d="M3750 7957 c-50 -16 -126 -94 -139 -142 -32 -117 -1 -219 83 -270 43
-26 60 -30 135 -33 101 -4 116 4 124 66 l5 43 -36 -8 c-103 -22 -167 3 -190
74 -19 57 -3 112 45 153 35 31 38 32 115 28 l79 -3 -7 45 c-4 25 -9 47 -11 50
-10 10 -170 8 -203 -3z"/>
<path d="M4929 7960 c0 -3 -2 -24 -5 -47 l-5 -43 66 0 65 0 -1 -82 c0 -46 -4
-125 -7 -176 l-7 -92 61 0 61 0 6 83 c4 45 7 117 7 159 0 108 0 108 76 108
l64 0 0 45 0 44 -190 3 c-105 2 -190 1 -191 -2z"/>
<path d="M5423 7963 l-63 -4 -1 -42 c0 -23 -2 -58 -4 -77 -2 -19 -6 -99 -9
-177 l-6 -143 58 0 59 0 9 178 9 177 47 -1 c53 0 78 -16 78 -49 0 -28 -28 -53
-68 -61 -18 -4 -32 -9 -32 -11 0 -3 16 -56 36 -119 l35 -114 66 0 c48 0 64 3
60 13 -22 49 -67 170 -67 177 0 5 13 16 30 25 64 33 81 131 32 186 -40 44 -89
52 -269 42z"/>
<path d="M5917 7956 c-100 -37 -150 -113 -150 -228 0 -130 78 -207 218 -216
136 -9 226 46 259 159 19 62 20 90 5 144 -15 55 -52 101 -102 127 -53 27 -175
35 -230 14z m175 -116 c34 -37 42 -67 34 -125 -5 -30 -17 -54 -37 -75 -26 -25
-38 -30 -81 -30 -41 0 -54 5 -78 28 -52 53 -49 150 6 205 46 46 113 45 156 -3z"/>
<path d="M6606 7955 c-86 -30 -145 -119 -146 -218 0 -95 36 -158 115 -200 36
-20 55 -22 198 -21 86 0 161 5 166 10 5 5 12 28 16 52 l7 43 -37 -7 -37 -7 27
42 c35 56 43 127 21 185 -21 54 -81 111 -133 125 -52 15 -150 13 -197 -4z
m170 -101 c44 -29 59 -126 29 -184 -45 -88 -188 -75 -216 19 -37 125 84 232
187 165z"/>
<path d="M7374 7962 l-61 -3 -7 -137 c-9 -172 -22 -206 -82 -210 -31 -2 -44 2
-60 19 -17 19 -19 34 -17 133 1 61 5 130 8 154 l6 42 -64 0 -64 0 -6 -112
c-10 -164 -9 -234 5 -263 7 -15 33 -36 65 -51 48 -24 62 -26 136 -22 92 5 134
22 167 68 18 26 23 52 31 191 6 88 9 168 7 177 -2 14 -13 17 -64 14z"/>
<path d="M7794 7963 l-61 -4 -7 -167 c-4 -92 -9 -191 -12 -219 l-6 -53 61 0
c56 0 61 2 62 23 1 12 4 92 8 177 l6 155 25 3 c13 2 41 -1 62 -7 32 -10 38
-16 38 -39 0 -15 -4 -32 -8 -38 -11 -16 -48 -34 -71 -34 -12 0 -21 -1 -21 -3
0 -1 11 -36 24 -77 13 -41 29 -94 36 -117 l11 -43 64 0 c36 0 65 4 65 8 0 4
-16 48 -36 96 -32 79 -34 90 -20 98 52 29 69 55 74 110 5 64 -7 92 -48 113
-32 17 -146 25 -246 18z"/>
<path d="M8282 7953 c-88 -31 -141 -115 -142 -222 0 -139 88 -221 239 -221 81
0 127 16 176 61 96 89 101 245 11 335 -24 25 -58 46 -81 53 -55 15 -151 12
-203 -6z m162 -92 c39 -26 55 -57 56 -109 0 -87 -43 -142 -113 -142 -52 0 -92
23 -108 62 -29 71 -9 145 50 185 41 28 77 29 115 4z"/>
<path d="M8768 7963 l-68 -4 0 -92 c0 -51 -3 -149 -7 -219 l-6 -128 55 0 55 0
6 98 c4 53 7 131 7 173 l0 77 30 5 c37 8 57 1 71 -25 15 -27 -13 -67 -52 -75
-23 -4 -28 -10 -24 -24 3 -11 8 -28 11 -39 7 -27 77 -27 122 0 45 28 76 97 67
150 -13 76 -68 112 -160 108 -22 -1 -70 -3 -107 -5z"/>
<path d="M9159 7963 l-56 -4 -7 -182 c-4 -100 -9 -199 -13 -219 l-6 -38 62 0
c56 0 61 2 62 23 1 12 4 92 8 177 l6 155 31 3 c37 4 83 -13 90 -33 16 -41 -24
-85 -78 -85 -15 0 -18 -4 -14 -17 4 -10 21 -64 39 -120 l31 -103 63 0 c35 0
63 4 63 9 0 5 -13 40 -29 77 -45 108 -45 107 -11 127 40 24 60 65 60 122 0 39
-5 52 -30 75 -40 37 -94 44 -271 33z"/>
<path d="M10167 7956 c-99 -36 -151 -116 -151 -231 0 -46 6 -81 17 -102 22
-41 83 -91 127 -103 42 -12 170 -13 187 -2 7 5 16 30 19 56 6 44 5 48 -12 43
-122 -35 -203 3 -211 100 -8 92 52 155 147 155 28 -1 60 -4 70 -7 18 -6 20 -2
20 43 0 43 -3 50 -22 56 -40 10 -152 6 -191 -8z"/>
<path d="M10608 7963 l-188 -3 0 -45 0 -45 66 0 66 0 -6 -122 c-4 -68 -9 -147
-12 -175 l-5 -53 65 0 66 0 0 68 c0 38 3 117 7 175 l6 107 64 0 63 0 0 50 c0
28 -1 49 -2 48 -2 -2 -87 -4 -190 -5z"/>
<path d="M11196 7960 c-53 -16 -105 -61 -131 -113 -42 -84 -31 -210 23 -271
35 -39 112 -66 192 -66 41 0 81 4 89 9 11 7 34 91 27 99 -2 1 -26 -2 -54 -8
-96 -21 -163 17 -177 100 -9 51 22 118 65 143 30 18 119 25 157 13 16 -5 18 0
15 43 -3 40 -8 50 -25 55 -32 8 -147 6 -181 -4z"/>
<path d="M11607 7956 c-97 -35 -152 -116 -152 -226 0 -146 102 -229 265 -218
144 11 223 94 223 238 1 104 -50 178 -142 209 -45 15 -147 13 -194 -3z m167
-104 c90 -81 38 -242 -78 -242 -50 0 -83 21 -102 66 -42 101 30 215 126 198
19 -3 43 -13 54 -22z"/>
<path d="M4036 7763 c-3 -109 -9 -208 -12 -220 l-6 -23 171 0 171 0 0 45 0 44
-102 3 -103 3 3 35 c2 19 6 37 9 40 2 3 40 7 84 9 73 3 79 5 79 25 0 11 3 31
6 44 6 22 5 22 -85 22 -98 0 -100 1 -85 58 6 21 11 22 105 22 96 0 99 1 100
23 0 12 2 32 5 45 l4 22 -168 0 -169 0 -7 -197z"/>
<path d="M4446 7763 c-4 -109 -10 -208 -13 -220 -5 -22 -2 -23 56 -23 l61 0 0
135 c0 79 4 135 10 135 5 0 30 -42 56 -92 25 -51 57 -112 71 -135 l25 -43 73
0 72 0 7 148 c3 81 9 180 12 220 l6 72 -54 0 -55 0 -7 -61 c-3 -34 -6 -98 -6
-142 0 -50 -4 -77 -9 -71 -5 5 -39 69 -76 142 l-67 132 -77 0 -78 0 -7 -197z"/>
<path d="M7516 7868 c-3 -51 -8 -150 -11 -220 l-6 -128 64 0 64 0 9 220 9 220
-62 0 -61 0 -6 -92z"/>
<path d="M9670 7951 c0 -5 -45 -102 -100 -216 -55 -114 -100 -209 -100 -211 0
-2 29 -4 65 -4 l65 0 29 65 30 66 77 -3 76 -3 20 -62 19 -63 65 0 c48 0 64 3
61 13 -2 6 -35 105 -73 219 l-69 208 -82 0 c-46 0 -83 -4 -83 -9z m104 -155
c9 -27 16 -51 16 -53 0 -2 -20 -3 -45 -3 -25 0 -45 4 -45 9 0 20 44 111 50
104 4 -4 15 -30 24 -57z"/>
<path d="M10846 7754 c-4 -113 -10 -212 -13 -220 -4 -11 9 -14 66 -14 l71 0 0
128 c0 71 3 170 6 220 l7 92 -65 0 -65 0 -7 -206z"/>
<path d="M2155 7944 c-370 -50 -597 -157 -874 -414 -172 -159 -340 -447 -411
-707 -237 -864 258 -1762 1084 -1969 141 -36 397 -44 547 -19 598 100 1073
579 1209 1220 31 143 38 402 16 555 -36 251 -124 483 -259 685 -220 329 -571
563 -944 631 -86 15 -308 26 -368 18z m385 -169 c248 -56 459 -174 645 -360
488 -488 561 -1273 172 -1860 -254 -385 -694 -614 -1137 -592 -317 16 -592
136 -828 361 -212 203 -354 462 -419 766 -26 122 -26 459 0 580 127 589 539
1011 1087 1115 101 19 377 13 480 -10z"/>
<path d="M2140 7639 c-155 -18 -339 -86 -485 -181 -73 -47 -128 -98 -92 -85
11 4 16 3 12 -4 -4 -6 -14 -8 -22 -5 -19 8 -125 -97 -118 -116 3 -8 -5 -23
-17 -34 l-23 -19 19 23 c11 12 17 25 14 28 -6 6 -118 -128 -118 -140 0 -4 -12
-23 -26 -42 -15 -19 -24 -40 -20 -49 3 -9 2 -14 -3 -11 -14 9 -87 -150 -115
-249 -14 -49 -31 -124 -38 -165 -16 -102 -16 -316 1 -420 29 -184 132 -436
223 -547 22 -26 56 -67 75 -91 20 -24 42 -41 49 -38 7 3 11 0 8 -7 -2 -7 17
-33 43 -58 162 -156 355 -251 595 -294 178 -31 426 -4 582 64 23 10 54 24 70
30 24 10 27 14 15 22 -10 7 -7 8 11 4 18 -4 41 6 85 35 33 22 78 52 99 66 31
21 36 28 25 36 -11 8 -11 9 3 5 21 -7 142 108 132 125 -4 7 -3 8 4 4 11 -7 59
50 54 65 -1 5 4 8 10 7 7 -2 12 5 12 14 -1 10 2 16 6 13 9 -6 83 110 128 200
156 313 161 750 11 1090 -120 274 -331 495 -591 620 -199 95 -399 129 -618
104z m497 -275 c-3 -3 -12 -4 -19 -1 -8 3 -5 6 6 6 11 1 17 -2 13 -5z m-977
-55 c0 -5 -11 1 -25 13 -14 12 -25 23 -25 25 0 2 11 -4 25 -13 14 -9 25 -20
25 -25z m-140 18 c0 -2 -12 -14 -27 -28 l-28 -24 24 28 c23 25 31 32 31 24z
m770 -77 c-8 -5 -19 -10 -25 -10 -5 0 -3 5 5 10 8 5 20 10 25 10 6 0 3 -5 -5
-10z m-572 -25 c-3 -3 -9 2 -12 12 -6 14 -5 15 5 6 7 -7 10 -15 7 -18z m419
-51 c-3 -3 -12 -4 -19 -1 -8 3 -5 6 6 6 11 1 17 -2 13 -5z m-390 -46 c-3 -8
-6 -5 -6 6 -1 11 2 17 5 13 3 -3 4 -12 1 -19z m-50 -10 c-3 -8 -6 -5 -6 6 -1
11 2 17 5 13 3 -3 4 -12 1 -19z m115 -25 c24 -9 47 -19 51 -23 12 -11 -31 -90
-49 -90 -43 0 -93 67 -79 109 8 25 21 26 77 4z m158 -3 c-24 -15 -36 -11 -14
4 10 8 21 12 24 10 2 -3 -2 -9 -10 -14z m777 -37 c-3 -10 -5 -4 -5 12 0 17 2
24 5 18 2 -7 2 -21 0 -30z m-1430 5 c-3 -8 -6 -5 -6 6 -1 11 2 17 5 13 3 -3 4
-12 1 -19z m604 13 c-12 -8 -10 -12 12 -22 32 -15 33 -19 7 -69 -11 -22 -18
-40 -15 -40 2 0 14 19 26 43 12 23 23 43 24 45 5 6 75 -27 75 -35 0 -4 -14
-32 -30 -60 -29 -51 -31 -52 -58 -41 -15 7 -33 19 -39 27 -7 8 -13 11 -13 7 0
-4 -18 3 -39 15 l-40 22 24 48 c23 45 47 68 70 69 6 0 3 -4 -4 -9z m-193 -57
c-3 -14 -5 -12 -10 9 -3 19 -2 25 4 19 6 -6 8 -18 6 -28z m370 -34 c4 0 15 -7
25 -14 17 -13 16 -17 -10 -70 -15 -31 -33 -56 -41 -56 -15 0 -72 28 -72 35 0
3 14 30 31 61 22 38 36 53 46 50 8 -3 18 -6 21 -6z m659 -12 c-3 -8 -6 -5 -6
6 -1 11 2 17 5 13 3 -3 4 -12 1 -19z m-591 -17 c-3 -4 6 -13 20 -20 32 -14 54
-15 34 0 -12 8 -12 10 -1 7 26 -7 22 -49 -9 -103 l-30 -53 -43 20 c-23 11 -44
22 -46 24 -4 4 68 134 75 134 3 0 3 -4 0 -9z m-929 -23 c-3 -8 -6 -5 -6 6 -1
11 2 17 5 13 3 -3 4 -12 1 -19z m654 -15 c13 -15 12 -15 -8 -4 -24 12 -29 21
-14 21 5 0 15 -7 22 -17z m486 1 c-3 -3 -12 -4 -19 -1 -8 3 -5 6 6 6 11 1 17
-2 13 -5z m-57 -57 c0 -10 -39 -88 -52 -104 -8 -10 -17 -9 -39 4 -16 10 -29
21 -29 26 0 5 14 33 30 63 l31 53 29 -17 c17 -9 30 -21 30 -25z m447 1 c-3 -7
-5 -2 -5 12 0 14 2 19 5 13 2 -7 2 -19 0 -25z m-190 0 c-3 -8 -6 -5 -6 6 -1
11 2 17 5 13 3 -3 4 -12 1 -19z m-110 -4 c-3 -3 -12 -4 -19 -1 -8 3 -5 6 6 6
11 1 17 -2 13 -5z m-81 -25 c19 -11 34 -23 34 -25 0 -12 -61 -124 -68 -124
-14 0 -72 40 -72 50 0 18 54 120 63 120 5 0 25 -9 43 -21z m-1139 -36 c-3 -10
-5 -2 -5 17 0 19 2 27 5 18 2 -10 2 -26 0 -35z m1273 25 c0 -6 -6 -5 -15 2 -8
7 -15 14 -15 16 0 2 7 1 15 -2 8 -4 15 -11 15 -16z m24 -24 c3 -8 2 -12 -4 -9
-6 3 -10 10 -10 16 0 14 7 11 14 -7z m-64 -34 l35 -29 -30 -56 c-28 -53 -60
-84 -73 -71 -3 3 1 6 8 6 7 0 -3 13 -21 30 l-34 29 25 48 c30 57 40 73 49 73
3 0 22 -14 41 -30z m-1223 -22 c-3 -8 -6 -5 -6 6 -1 11 2 17 5 13 3 -3 4 -12
1 -19z m1300 -33 c-1 -5 6 -9 15 -9 10 1 15 -2 12 -7 -3 -5 2 -16 10 -24 14
-14 12 -21 -14 -64 -17 -27 -30 -53 -30 -60 0 -16 -14 -13 -40 9 -12 11 -28
17 -34 13 -6 -3 -8 -3 -4 2 4 4 3 14 -3 21 -16 19 45 133 70 131 11 0 19 -6
18 -12z m-1268 -85 c0 -10 -3 -8 -9 5 -12 27 -12 43 0 25 5 -8 9 -22 9 -30z
m1355 9 c-2 -4 4 -14 13 -21 43 -31 45 -42 17 -92 -14 -25 -30 -48 -34 -51 -5
-3 -28 6 -50 20 -46 29 -46 34 -4 109 17 30 31 44 44 43 10 -1 17 -4 14 -8z
m-1304 -79 c6 0 10 -6 10 -12 0 -7 -12 0 -25 15 -14 15 -25 33 -25 40 1 7 8 0
16 -15 8 -16 19 -28 24 -28z m135 20 c-16 -11 -34 -20 -40 -20 -12 0 46 38 60
39 6 1 -3 -8 -20 -19z m-55 -24 c0 -3 -4 -8 -10 -11 -5 -3 -10 -1 -10 4 0 6 5
11 10 11 6 0 10 -2 10 -4z m1330 -31 c18 -19 37 -32 41 -30 4 3 6 -2 5 -10 -3
-18 -64 -105 -75 -105 -4 0 -22 15 -40 34 l-33 34 27 56 c14 31 30 56 34 56 4
0 22 -16 41 -35z m-225 5 c3 -5 1 -10 -4 -10 -6 0 -11 5 -11 10 0 6 2 10 4 10
3 0 8 -4 11 -10z m-948 -72 c-3 -8 -6 -5 -6 6 -1 11 2 17 5 13 3 -3 4 -12 1
-19z m863 -8 c8 -5 11 -10 5 -10 -5 0 -17 5 -25 10 -8 5 -10 10 -5 10 6 0 17
-5 25 -10z m400 -21 c16 -18 30 -36 30 -40 0 -5 -14 -29 -32 -54 l-32 -45 -34
33 -34 34 34 51 c18 28 34 51 35 51 2 1 16 -13 33 -30z m70 -54 c6 -4 8 -15 5
-24 -3 -11 3 -25 15 -36 11 -10 20 -24 20 -31 0 -14 -60 -102 -70 -103 -3 -1
-18 20 -33 45 l-28 46 25 39 c15 21 26 43 26 49 0 14 13 13 28 -2 8 -8 12 -8
12 -1 0 6 -7 16 -15 23 -8 7 -15 20 -14 29 0 11 3 10 9 -5 5 -12 14 -25 20
-29z m-260 -15 c0 -5 -2 -10 -4 -10 -3 0 -8 5 -11 10 -3 6 -1 10 4 10 6 0 11
-4 11 -10z m91 -38 c-7 -2 -18 1 -23 6 -8 8 -4 9 13 5 13 -4 18 -8 10 -11z
m234 -43 c12 -27 25 -46 29 -42 3 3 6 -1 6 -9 0 -9 5 -18 11 -20 7 -2 -2 -19
-21 -38 -17 -19 -39 -45 -47 -57 -20 -31 -29 -29 -49 8 -15 31 -15 32 15 74
17 24 31 48 31 53 0 6 5 12 12 14 8 3 5 16 -10 42 -12 20 -17 34 -11 30 6 -3
21 -28 34 -55z m-1448 -21 c-3 -8 -6 -5 -6 6 -1 11 2 17 5 13 3 -3 4 -12 1
-19z m1030 16 c-3 -3 -12 -4 -19 -1 -8 3 -5 6 6 6 11 1 17 -2 13 -5z m-90 -30
c-3 -3 -12 -4 -19 -1 -8 3 -5 6 6 6 11 1 17 -2 13 -5z m-62 -14 c-3 -5 -12
-10 -18 -10 -7 0 -6 4 3 10 19 12 23 12 15 0z m379 -35 c-25 -19 -40 -19 -24
0 7 8 20 15 28 15 13 0 12 -3 -4 -15z m-151 -2 c-7 -2 -19 -2 -25 0 -7 3 -2 5
12 5 14 0 19 -2 13 -5z m50 0 c-7 -2 -19 -2 -25 0 -7 3 -2 5 12 5 14 0 19 -2
13 -5z m384 -51 c14 -15 18 -52 5 -52 -5 0 -26 -22 -48 -50 -21 -27 -42 -49
-47 -50 -4 0 -15 16 -24 35 l-16 34 36 45 c21 24 37 48 37 53 0 5 5 14 12 21
9 9 14 8 22 -5 5 -10 16 -24 23 -31z m-327 24 c0 -2 -7 -7 -16 -10 -8 -3 -12
-2 -9 4 6 10 25 14 25 6z m-1243 -28 c-3 -8 -6 -5 -6 6 -1 11 2 17 5 13 3 -3
4 -12 1 -19z m-10 -40 c-3 -8 -6 -5 -6 6 -1 11 2 17 5 13 3 -3 4 -12 1 -19z
m1388 2 c-3 -5 -12 -10 -18 -10 -7 0 -6 4 3 10 19 12 23 12 15 0z m258 -59
c17 -29 17 -31 -1 -48 -10 -10 -38 -42 -61 -71 -32 -39 -46 -50 -52 -40 -7 10
-9 10 -9 -1 0 -33 -13 1 -14 40 -2 33 3 49 24 73 14 17 37 46 49 64 25 36 34
34 64 -17z m-1190 22 c-13 -2 -33 -2 -45 0 -13 2 -3 4 22 4 25 0 35 -2 23 -4z
m67 -13 c8 -5 11 -10 5 -10 -5 0 -17 5 -25 10 -8 5 -10 10 -5 10 6 0 17 -5 25
-10z m770 6 c0 -2 -7 -7 -16 -10 -8 -3 -12 -2 -9 4 6 10 25 14 25 6z m-1313
-38 c-3 -8 -6 -5 -6 6 -1 11 2 17 5 13 3 -3 4 -12 1 -19z m1270 16 c-3 -3 -12
-4 -19 -1 -8 3 -5 6 6 6 11 1 17 -2 13 -5z m447 -82 l24 -48 -27 -30 c-15 -16
-39 -46 -55 -66 -16 -22 -35 -36 -47 -35 -12 1 -17 7 -15 14 3 7 0 24 -6 38
-10 22 -7 30 18 63 16 20 41 54 54 74 14 21 26 38 27 38 2 0 14 -22 27 -48z
m-268 10 c-17 -16 -18 -16 -5 5 7 12 15 20 18 17 3 -2 -3 -12 -13 -22z m-1119
-34 c-3 -7 -5 -2 -5 12 0 14 2 19 5 13 2 -7 2 -19 0 -25z m1077 -22 c-3 -8
-13 -17 -22 -21 -13 -5 -13 -2 3 15 21 24 26 25 19 6z m361 -53 c18 -43 14
-62 -22 -97 -18 -19 -36 -26 -63 -26 -49 0 -56 19 -22 57 15 17 40 46 56 66
15 21 30 37 32 37 2 0 11 -16 19 -37z m-1031 1 c3 -8 2 -12 -4 -9 -6 3 -10 10
-10 16 0 14 7 11 14 -7z m579 -54 c-9 -16 -21 -30 -26 -30 -5 0 1 14 13 30 12
17 24 30 26 30 3 0 -3 -13 -13 -30z m-1391 -32 c-6 -6 -7 0 -4 19 5 21 7 23
10 9 2 -10 0 -22 -6 -28z m835 -35 c-3 -10 -5 -4 -5 12 0 17 2 24 5 18 2 -7 2
-21 0 -30z m447 -8 c-9 -14 -18 -25 -21 -25 -5 0 5 18 20 38 17 22 18 13 1
-13z m42 -15 c0 -12 -4 -16 -9 -11 -5 5 -6 14 -3 20 10 15 12 14 12 -9z m211
-27 c-3 -10 -5 -4 -5 12 0 17 2 24 5 18 2 -7 2 -21 0 -30z m-1228 -62 c-7 -23
-14 -39 -16 -37 -3 2 1 23 8 45 7 23 14 39 16 37 3 -2 -1 -23 -8 -45z m526
-11 c-3 -5 -12 -10 -18 -10 -7 0 -6 4 3 10 19 12 23 12 15 0z m940 -20 c0 -7
-7 -15 -15 -17 -13 -4 -13 -3 0 6 13 10 13 12 0 22 -13 9 -13 10 0 6 8 -2 15
-10 15 -17z m-1031 -45 c-10 -8 -23 -15 -28 -15 -6 0 -1 7 10 15 10 8 23 15
28 15 6 0 1 -7 -10 -15z m-82 -60 c-17 -14 -34 -25 -38 -25 -11 1 48 50 59 50
5 0 -5 -11 -21 -25z m-67 -45 c-10 -11 -23 -20 -29 -20 -6 1 0 10 13 20 30 26
39 26 16 0z m-90 -60 c-3 -5 -12 -10 -18 -10 -7 0 -6 4 3 10 19 12 23 12 15 0z
m-55 -40 c0 -5 -5 -10 -11 -10 -5 0 -7 5 -4 10 3 6 8 10 11 10 2 0 4 -4 4 -10z
m-30 -19 c0 -5 -7 -12 -16 -15 -14 -5 -15 -4 -4 9 14 17 20 19 20 6z m-40 -25
c0 -2 -7 -7 -16 -10 -8 -3 -12 -2 -9 4 6 10 25 14 25 6z"/>
<path d="M3625 7350 c-2 -3 15 -34 37 -70 88 -142 159 -325 199 -507 26 -125
37 -422 20 -574 -32 -276 -126 -576 -269 -854 -32 -60 -59 -113 -60 -117 -2
-4 1898 -7 4222 -6 l4226 3 0 1040 c0 572 0 1051 0 1065 l0 25 -4186 0 c-2302
0 -4187 -2 -4189 -5z m2240 -259 c333 -48 517 -188 451 -344 -42 -100 -213
-183 -464 -224 -56 -9 -99 -19 -95 -23 4 -4 85 -51 178 -105 94 -54 204 -118
245 -142 101 -58 155 -73 267 -73 l93 0 0 -75 0 -75 -348 0 -348 0 -343 230
-343 230 -89 0 -89 0 0 -122 c0 -68 3 -133 6 -144 9 -33 47 -44 154 -44 l100
0 0 -75 0 -75 -527 0 -528 0 0 73 0 72 113 5 c80 4 116 10 127 21 12 12 15 70
15 363 1 306 -1 351 -15 365 -12 12 -44 17 -128 21 l-111 5 1 65 c0 36 1 71 2
78 1 11 142 13 799 9 529 -3 824 -8 877 -16z m2578 -138 c198 -252 434 -550
518 -654 89 -110 122 -129 220 -129 l60 0 -3 -82 c-3 -72 -5 -83 -20 -82 -10
1 -248 2 -528 3 l-511 1 3 78 3 77 90 5 c91 6 125 14 125 32 0 5 -22 41 -48
80 l-49 70 -338 -1 c-311 0 -338 -2 -351 -18 -7 -10 -32 -44 -54 -75 l-40 -57
22 -15 c16 -12 47 -16 115 -16 l93 0 0 -80 c0 -57 -4 -80 -12 -80 -7 0 -202 0
-433 0 l-420 0 -3 79 -3 78 81 5 c99 6 109 12 211 139 121 150 582 731 609
767 l24 32 257 0 258 0 124 -157z m1955 80 l-3 -78 -102 -3 c-133 -4 -143 -14
-71 -76 85 -73 302 -236 310 -234 4 2 93 65 197 142 121 89 187 144 184 152
-3 10 -34 14 -111 16 l-107 3 -3 78 -3 77 461 0 461 0 -3 -77 -3 -78 -85 -6
c-101 -7 -119 -15 -292 -136 -71 -48 -213 -146 -318 -218 l-189 -130 -1 -127
c0 -158 -3 -156 156 -163 l109 -5 3 -75 3 -75 -561 0 -561 0 3 76 3 75 105 5
c100 5 137 14 152 38 4 6 8 61 8 122 l0 110 -42 30 c-24 17 -167 119 -318 228
-151 109 -293 207 -315 219 -28 14 -66 23 -125 26 l-85 6 -3 78 -3 77 576 0
576 0 -3 -77z m-6332 -1317 c1 0 4 -18 7 -39 l6 -38 -49 7 c-42 6 -51 4 -56
-11 -5 -13 3 -28 32 -53 83 -76 93 -115 40 -168 -30 -30 -40 -34 -87 -34 -88
0 -99 6 -99 52 0 33 3 38 18 34 52 -15 68 -16 87 -2 19 14 18 16 -38 74 -64
68 -72 100 -36 146 25 32 71 46 129 39 25 -3 45 -6 46 -7z m2175 4 c16 0 19
-8 19 -41 l0 -40 -44 6 c-75 12 -125 -30 -126 -102 0 -63 28 -85 105 -82 l60
2 -3 -29 c-5 -52 -7 -54 -79 -54 -119 0 -183 55 -183 157 0 63 17 109 53 142
31 28 110 52 151 46 16 -3 37 -5 47 -5z m2089 -15 c120 -62 110 -258 -17 -311
-85 -36 -208 -3 -244 66 -23 42 -25 114 -4 163 37 88 172 130 265 82z m317 11
c0 -1 4 -18 8 -39 l8 -39 -45 7 c-35 5 -47 3 -58 -10 -12 -15 -8 -22 37 -64
58 -54 71 -87 53 -132 -17 -40 -57 -59 -124 -59 -63 0 -86 16 -86 61 0 16 1
29 3 29 1 0 17 -4 36 -10 40 -11 81 -3 81 16 0 7 -18 30 -41 51 -52 48 -72 86
-64 123 12 54 71 83 150 72 22 -2 41 -5 42 -6z m1071 -1 c6 -3 12 -20 12 -38
l0 -34 -59 1 c-50 1 -63 -3 -85 -23 -14 -13 -28 -38 -32 -55 -13 -74 42 -121
124 -106 39 7 42 6 42 -14 0 -11 -3 -32 -7 -44 -6 -23 -9 -24 -84 -20 -83 3
-112 17 -153 72 -27 35 -28 125 -2 178 36 75 148 112 244 83z m1165 -2 c24 -6
21 -80 -3 -74 -87 21 -146 8 -173 -38 -46 -77 2 -164 79 -145 31 8 35 54 4 54
-16 0 -20 7 -20 35 l0 35 68 0 68 0 -4 -92 c-2 -51 -6 -95 -9 -98 -2 -2 -45
-6 -96 -8 -74 -2 -99 0 -126 15 -50 26 -74 64 -79 127 -8 99 48 177 140 195
40 8 110 6 151 -6z m176 -19 c-27 -29 -96 -35 -85 -8 3 9 6 20 6 24 0 9 78 18
93 12 5 -2 -2 -15 -14 -28z m584 27 c25 -1 27 -4 27 -41 l0 -40 -45 7 c-69 9
-71 -16 -6 -81 45 -45 51 -57 51 -93 0 -59 -41 -93 -113 -93 -83 0 -95 6 -99
51 -4 44 -6 43 42 29 82 -24 91 15 20 85 -43 42 -50 55 -50 88 0 59 52 99 120
91 14 -1 37 -3 53 -3z m-7416 -163 c-4 -104 -10 -164 -17 -168 -7 -4 -28 -6
-48 -5 -42 2 -38 -25 -34 210 l2 125 52 0 51 0 -6 -162z m228 63 c28 -55 53
-100 58 -100 4 -1 7 44 7 99 l0 100 45 0 44 0 -6 -162 c-3 -90 -8 -165 -10
-168 -3 -3 -28 -5 -58 -6 l-52 -1 -54 101 -54 101 -5 -100 -5 -100 -44 -3 -44
-3 6 122 c4 67 7 144 7 171 l0 48 58 0 57 0 50 -99z m459 82 c2 -10 12 -54 22
-97 l17 -79 18 59 c11 32 24 76 29 97 l11 37 66 0 66 0 -6 -112 c-4 -62 -7
-138 -7 -169 l0 -57 -40 2 -40 1 -1 105 0 105 -32 -104 -32 -105 -42 -2 -42
-2 -11 56 c-7 32 -17 80 -24 107 l-13 50 -8 -108 -7 -108 -37 3 c-42 3 -40
-12 -26 206 l8 132 63 0 c51 0 64 -3 68 -17z m534 -20 l-3 -38 -66 3 c-67 4
-86 -5 -85 -38 1 -11 16 -16 64 -18 l62 -3 0 -34 0 -35 -65 0 -65 0 0 -30 0
-30 76 0 75 0 -3 -37 -3 -38 -125 0 c-119 0 -125 1 -123 20 0 11 4 86 8 168
l7 147 125 0 124 0 -3 -37z m282 24 c44 -22 70 -73 70 -138 0 -68 -12 -104
-47 -141 -31 -33 -62 -40 -175 -42 l-88 -2 0 47 c0 25 3 101 7 167 l6 122 101
0 c61 0 111 -5 126 -13z m217 -99 c-4 -62 -7 -139 -7 -170 l0 -58 -44 3 c-25
1 -48 5 -51 9 -3 3 -3 78 1 167 l7 161 50 0 50 0 -6 -112z m641 -48 c29 -88
52 -163 50 -167 -2 -5 -23 -8 -48 -8 -44 1 -44 1 -59 48 l-15 47 -55 0 -56 0
-21 -49 -21 -48 -49 1 c-27 1 -48 6 -47 11 1 6 36 81 78 168 l77 157 57 0 56
0 53 -160z m245 83 c9 -43 17 -87 17 -97 0 -34 14 -7 41 82 l27 87 63 0 63 0
-3 -160 c-1 -88 -4 -162 -6 -165 -2 -3 -21 -6 -42 -5 l-38 0 2 110 c3 119 2
119 -42 -27 l-26 -86 -42 2 -42 2 -19 98 c-10 53 -22 94 -27 89 -4 -4 -9 -49
-11 -98 l-3 -90 -39 0 -39 -1 7 101 c3 55 9 130 12 168 l7 67 61 0 61 0 18
-77z m523 61 c-3 -9 -6 -26 -6 -39 0 -23 -2 -24 -51 -19 -72 8 -99 -1 -99 -31
0 -24 2 -25 66 -25 56 0 65 -2 60 -16 -3 -9 -6 -24 -6 -34 0 -16 -9 -19 -62
-22 -60 -3 -63 -4 -66 -30 l-3 -28 76 0 76 0 -3 -37 -3 -38 -120 0 -120 0 4
160 c2 88 5 163 8 168 2 4 61 7 130 7 110 0 124 -2 119 -16z m218 -88 l51 -98
5 98 5 99 43 3 42 3 -1 -93 c-1 -51 -4 -127 -8 -168 l-6 -75 -53 -1 c-59 -2
-55 -6 -130 139 l-30 59 -6 -54 c-3 -29 -7 -73 -9 -98 -2 -43 -4 -45 -32 -46
-53 -1 -53 -3 -48 149 6 199 2 189 70 185 l57 -3 50 -99z m464 67 c-3 -38 -3
-38 -50 -41 l-48 -3 0 -47 c0 -26 -3 -84 -6 -128 l-7 -81 -46 2 -46 2 4 126 3
127 -46 0 -46 0 0 40 0 40 146 0 145 0 -3 -37z m957 -62 c27 -55 52 -98 57
-95 4 3 8 48 8 100 l0 94 45 0 44 0 -5 -147 c-7 -203 -2 -189 -70 -186 -31 1
-57 3 -59 5 -1 2 -25 46 -51 98 l-49 95 -5 -100 -5 -99 -42 -1 -43 -1 0 46 c0
26 3 102 7 168 l6 122 57 0 57 0 48 -99z m305 36 c0 -35 -3 -112 -7 -170 l-6
-107 -36 0 c-20 0 -41 4 -48 8 -8 5 -10 51 -6 170 l6 162 48 0 49 0 0 -63z
m574 -94 c-3 -87 -7 -163 -9 -169 -2 -6 -24 -11 -49 -11 l-46 0 0 56 c0 31 3
107 7 169 l6 112 48 0 48 0 -5 -157z m312 124 c13 -15 24 -39 24 -53 0 -35
-26 -81 -50 -89 -25 -8 -25 -13 5 -81 14 -31 25 -62 25 -68 0 -8 -17 -11 -47
-11 l-48 1 -27 80 c-14 43 -27 84 -27 89 -1 6 14 15 32 20 24 8 33 16 35 37 3
22 -2 29 -22 34 -58 14 -61 10 -66 -131 l-5 -130 -45 0 c-45 0 -45 0 -44 35 1
19 2 89 4 155 1 66 5 126 8 133 4 11 29 13 114 10 106 -3 111 -4 134 -31z
m159 -76 c-8 -125 -1 -151 44 -151 16 0 34 7 41 15 12 14 28 131 29 213 1 32
1 32 52 32 l50 0 -7 -122 c-7 -134 -15 -161 -57 -192 -39 -29 -149 -34 -197
-9 -55 28 -61 53 -54 197 l7 126 50 0 49 0 -7 -109z m1041 -59 c30 -90 54
-164 54 -166 0 -1 -22 -3 -50 -2 l-50 0 -16 48 -16 49 -55 -3 -55 -3 -18 -45
c-17 -44 -18 -44 -69 -46 -38 -2 -51 1 -49 11 2 7 37 83 78 169 l74 157 59 -3
58 -3 55 -163z m-336 39 c0 -25 -3 -83 -6 -128 l-7 -81 -45 0 -45 0 7 120 c4
67 9 124 11 129 3 4 23 7 45 7 l40 0 0 -47z"/>
<path d="M4980 6790 l0 -143 278 6 c307 6 390 18 456 64 97 69 56 153 -93 190
-39 10 -144 16 -348 20 l-293 6 0 -143z"/>
<path d="M7863 6662 l-102 -137 104 -3 c58 -1 152 -1 209 0 l104 3 -99 135
c-55 74 -103 136 -107 137 -4 2 -53 -59 -109 -135z"/>
<path d="M8179 5621 c-22 -23 -29 -39 -29 -70 0 -127 161 -124 164 4 1 39 -3
51 -27 71 -38 32 -72 31 -108 -5z"/>
<path d="M5596 5639 c-3 -8 -6 -51 -9 -96 l-4 -83 34 0 c52 0 83 37 83 98 0
26 -6 56 -13 65 -16 23 -85 35 -91 16z"/>
<path d="M6452 5597 c-16 -45 -16 -47 11 -47 33 0 36 6 24 46 -13 43 -20 43
-35 1z"/>
<path d="M11247 5596 c-22 -47 -22 -46 13 -46 33 0 36 9 17 54 l-12 28 -18
-36z"/>
</g>
</svg>
